<svg width="13" height="26" viewBox="0 0 22 44" fill="none" xmlns="http://www.w3.org/2000/svg">
  <line x1="11" y1="1" x2="11" y2="20" stroke="#C9A84C" stroke-width="2" stroke-linecap="round"/>
  <path d="M11 20 C11 17 7 15 5 11 C3.5 8 4 5 4 5" stroke="#C9A84C" stroke-width="1.6" stroke-linecap="round" fill="none"/>
  <path d="M11 20 C11 17 15 15 17 11 C18.5 8 18 5 18 5" stroke="#C9A84C" stroke-width="1.6" stroke-linecap="round" fill="none"/>
  <polygon points="11,0 9.2,4.5 12.8,4.5" fill="#C9A84C"/>
  <polygon points="4,5 2.5,8.5 5.5,7.5" fill="#C9A84C"/>
  <polygon points="18,5 19.5,8.5 16.5,7.5" fill="#C9A84C"/>
  <line x1="4" y1="22" x2="18" y2="22" stroke="#C9A84C" stroke-width="1.5" stroke-linecap="round"/>
  <line x1="11" y1="20" x2="11" y2="42" stroke="#C9A84C" stroke-width="2" stroke-linecap="round"/>
  <circle cx="11" cy="42" r="2" fill="#C9A84C"/>
</svg>
